PathFileType	4	(X/Y/Z)	Patient4_TMGait_0pt8_01_right_47.trc.trc
DataRate	CameraRate	NumFrames	NumMarkers	Units	OrigDataRate	OrigDataStartFrame	OrigNumFrames
88.607594936709	88.607594936709	6	33	mm	88.607594936709	106	       141
Frame#	Time	Sacral			L.Shoulder			Chest			R.Shoulder			Neck			R.ASIS			L.ASIS			R.Thigh.Superior			R.Thigh.Lateral			R.Thigh.Inferior			R.Patella			L.Thigh.Superior			L.Thigh.Lateral			L.Thigh.Inferior			L.Patella			L.Shank.Superior			L.Shank.Lateral			L.Shank.Inferior			R.Shank.Superior			R.Shank.Lateral			R.Shank.Inferior			R.Heel			R.Midfoot.Superior			R.Midfoot.Lateral			R.Toe			L.Heel			L.Midfoot.Lateral			L.Midfoot.Superior			L.Toe			L.Elbow			L.Wrist			R.Elbow			R.Wrist			
		X1	Y1	Z1	X2	Y2	Z2	X3	Y3	Z3	X4	Y4	Z4	X5	Y5	Z5	X6	Y6	Z6	X7	Y7	Z7	X8	Y8	Z8	X9	Y9	Z9	X10	Y10	Z10	X11	Y11	Z11	X12	Y12	Z12	X13	Y13	Z13	X14	Y14	Z14	X15	Y15	Z15	X16	Y16	Z16	X17	Y17	Z17	X18	Y18	Z18	X19	Y19	Z19	X20	Y20	Z20	X21	Y21	Z21	X22	Y22	Z22	X23	Y23	Z23	X24	Y24	Z24	X25	Y25	Z25	X26	Y26	Z26	X27	Y27	Z27	X28	Y28	Z28	X29	Y29	Z29	X30	Y30	Z30	X31	Y31	Z31	X32	Y32	Z32	X33	Y33	Z33	

106	54.085000000000	881.784540018445	1007.413485984407	439.199844117596	1071.870219531920	1440.255082053461	272.410381332589	1162.881722034224	1369.092252646762	439.484966822488	1066.159718883780	1437.015814097076	609.388412410461	1044.947067594424	1498.460622125495	429.327698787290	1102.729958461104	948.877659770776	567.664775961234	1103.273673068310	966.388050358384	293.870436513229	1199.676578079536	794.779740979264	538.762577854273	1174.428840538872	672.206662330746	617.279043772470	1267.561627938598	640.931974031209	538.560173917817	1301.009286319443	532.641555001489	566.381883832203	1137.940389191785	747.700606003071	325.241751575749	1039.044792937979	637.520867607730	263.773771212365	1113.485119319648	553.747506866103	329.986185331253	1107.147592882952	485.920124339818	341.791211705269	1079.567955568060	415.815354558039	333.712393152151	987.103806879813	302.904675398804	284.879662871391	1033.411307424126	192.290370152026	360.076591229257	1237.023188233442	447.758570371436	572.112648122424	1121.781935696471	386.083086648010	625.295128698976	1132.564666289274	275.522816541178	579.144223206290	950.575247307642	182.541270053001	538.255455688902	1121.521412833577	146.318932296293	595.592492389507	1010.150349876859	131.901662952174	617.835412460746	1195.951572765856	41.985768943015	628.541426845595	902.565549035948	38.970970236653	408.908257638648	973.637064985943	35.693292527755	325.356819322743	1057.852472173350	96.528272951553	350.116916939823	1185.244572584390	44.989541074837	317.005420161861	1106.207970368865	1097.155741424610	132.789720342495	1284.924919863614	905.641229723255	139.814900768658	1054.011210996412	1081.103109723935	713.864518080133	1205.874900357646	869.071728168440	696.957519361369	
107	54.096285714286	881.475406220669	1007.164050164206	438.404068975260	1072.830274699957	1440.261980612425	272.458830597087	1162.775777322278	1368.865464471147	439.995700722873	1065.083199242836	1436.595743649955	609.394877362560	1044.781669507486	1498.270625593389	429.207063339627	1102.033944365237	948.792930099415	567.741128408930	1103.397493141393	966.388662734953	293.782364563383	1199.483501909244	796.213687255622	538.631260965083	1175.665841824422	673.494607385526	617.670815343163	1268.755954757618	642.941264576154	538.901961608952	1304.035780375910	536.470473247743	567.107390105321	1134.828216729108	746.463116921014	325.030768835527	1034.191706994759	637.620864801286	263.113601374533	1107.089018475349	552.783048888287	329.171428773104	1099.769538285239	485.271018024741	340.922155286079	1072.014417149497	415.509255482196	332.941851012255	978.849865921651	303.035450596364	284.261153941960	1024.768272666592	192.201725284559	359.531943023292	1243.768264580865	449.831908668044	573.182444024422	1132.023598022259	382.467978383317	626.532482709094	1148.782355810931	272.346714568439	580.796549886114	972.060769665970	169.282418424549	539.900317961728	1144.650159378311	142.940830555222	597.866162569854	1034.207551045447	122.841288950231	620.201379557507	1224.610996937046	43.311078007860	632.294682536408	893.530975782408	39.148399418960	408.790675280546	964.589862348580	35.690300200321	325.295449066725	1048.921636310589	96.442215564883	349.901213349489	1176.265207586059	44.598400182037	316.945629491007	1113.114806502223	1099.054961883903	130.832220023993	1301.840155679568	917.523279455699	139.164039807249	1046.470916503783	1080.585194155739	713.633034713226	1179.771761651270	855.803432175600	702.032178682967	
108	54.107571428571	881.296260668333	1006.873013363704	437.826190418929	1073.785737502473	1440.165969030016	272.668303047143	1162.831786019336	1368.494577347507	440.557703477402	1064.383398764581	1436.073529995983	609.546994507793	1044.751929927280	1497.967723979794	429.236654929644	1101.510109899497	948.473118317768	567.830660305523	1103.545784428626	966.337283400151	293.693312493594	1199.047868866388	796.979734779645	538.670802080975	1176.121937288148	674.100509040115	618.122901900976	1269.287255382741	644.135576619499	539.500439951930	1306.084983662018	539.630724425810	567.879383716423	1131.679011544350	745.170040375779	324.646267609833	1029.155395714832	637.749076658228	262.495013690841	1100.549044150445	551.841191622260	328.295651537341	1092.282794224482	484.686636977324	339.975748299273	1064.321984346843	415.268044850429	332.147366446861	970.444375923877	303.223144307788	283.695857288539	1016.086479798950	192.167204924358	358.980621555883	1249.796104738087	451.481200984155	574.274246198191	1142.168376650490	378.441280397939	628.062388823601	1165.015195588861	269.132308288846	582.663915545583	994.375248860970	155.978366958109	542.119318965023	1168.090450011265	139.808592786313	600.238457334429	1059.049473629661	113.952404639590	622.957557238384	1253.517684572677	45.398145984060	635.942745174642	884.497495347520	39.331046857854	408.673024307472	955.537316321261	35.696604278551	325.240813496252	1039.980619257828	96.373071279428	349.679018325626	1167.260597103057	44.243792266249	316.881473904599	1119.539120039156	1100.896123136591	129.163902943348	1317.788526155733	930.015930480025	138.884019158849	1038.536705537457	1080.209760481017	713.327175689910	1153.193594271849	844.977130708055	707.032776980004	
109	54.118857142857	881.256379203194	1006.541088733568	437.450596320320	1074.719217166042	1439.970636399087	273.047402798143	1163.044440775452	1367.982392417063	441.174406743377	1064.054789601619	1435.445110331501	609.855392924213	1044.852722419620	1497.547853767190	429.430407191915	1101.175252400295	947.924677309889	567.933356640584	1103.713593998851	966.210136440479	293.615328731711	1198.378681038156	797.045321780893	538.882892467096	1175.788707329748	673.990708759863	618.634693486157	1269.153621741626	644.480325478731	540.335698450840	1307.162548573101	542.070953296178	568.640658565574	1128.500728432988	743.814904935536	324.102597359592	1023.946507251946	637.903835773253	261.927759911598	1093.881851287630	550.917365911009	327.386517797550	1084.707280343630	484.153744800790	338.975983786935	1056.500218513773	415.088826221587	331.349433614481	961.902791716870	303.466202365795	283.200227654328	1007.372817317771	192.183718733005	358.438262202832	1255.089032849428	452.699762755111	575.335102970621	1152.219401116671	374.067846561005	629.877527697103	1181.169952325220	265.974891116793	584.694309202254	1017.417620019711	142.824535855817	544.931675737937	1191.714649953076	137.069871831616	602.651151582713	1084.575591255687	105.402220878877	626.067697500430	1282.500988597287	48.367455840071	639.305200491346	875.460934997479	39.513483500341	408.560665294769	946.478695992165	35.712012761081	325.196463052008	1031.026787125413	96.320916429456	349.457635190158	1158.230459221921	43.931595880412	316.814209186260	1125.493064014466	1102.658390503623	127.783336859616	1332.694513000604	943.045098208178	138.960221103924	1030.130451452858	1080.075131037854	713.008782971056	1126.490683440678	836.580070699898	711.902912825467	
110	54.130142857143	881.361915108923	1006.159852751425	437.264120851973	1075.614580249998	1439.675057055436	273.601119288752	1163.404044359810	1367.330864873127	441.849857319754	1064.078573133157	1434.704656214955	610.325890744430	1045.073864509568	1497.003754063389	429.798112325578	1101.052803796091	947.157239760746	568.057187206204	1103.899288431955	965.980936615500	293.567419144170	1197.497577487304	796.390161852297	539.265092688242	1174.698279578045	673.157874007568	619.215206553714	1268.370578367823	643.959372169256	541.374026746466	1307.302749436212	543.757291881345	569.334648425937	1125.298369080610	742.392333903377	323.436217696914	1018.593364415282	638.076760687218	261.420928101408	1087.119423042155	550.004947095933	326.475440000310	1077.077876363024	483.650627995931	337.948880095299	1048.574761912891	414.960929897752	330.567275154267	953.251455082407	303.759203615429	282.785427210805	998.638771961529	192.243745159413	357.917798964883	1259.640957476173	453.485740886101	576.321325556847	1162.144757860941	369.427551997998	631.945767962201	1197.118148856674	262.960588779571	586.825879727106	1041.015770068447	130.007635702896	548.295857851707	1215.332631814878	134.858380770760	605.051365052053	1110.597345281939	97.356623051250	629.466868753625	1311.316779619901	52.308354934503	642.258669989769	866.418140775237	39.690448119930	408.458459152087	937.413551953967	35.734939195268	325.165206879732	1022.059044412734	96.284829069665	349.243111154058	1149.176538382404	43.665502919711	316.744853664201	1130.991393128964	1104.321007811472	126.685545464660	1346.489088058489	956.519689720672	139.376658063073	1021.222891731823	1080.277803722987	712.752619709804	1100.006044226743	830.524777583517	716.588643207792	
111	54.141428571429	881.614834986138	1005.712247189678	437.259209141482	1076.456909048289	1439.273499599873	274.330643442348	1163.896739507062	1366.541022816512	442.588364370875	1064.424030649787	1433.845033412183	610.959573474971	1045.400615841604	1496.325350377413	430.344854170223	1101.169156878236	946.180972952487	568.215666690670	1104.105890637967	965.624192373391	293.573320650158	1196.441869397994	795.011386852890	539.808731747857	1172.930120995608	671.625246024014	619.880838557710	1266.977267482825	642.580088879000	542.567577300676	1306.571235671361	544.676612835149	569.910392642808	1122.080912691065	740.899120348402	322.700772191666	1013.144741520118	638.252048708090	260.983414696182	1080.312474252065	549.094869086018	325.595585266130	1069.447644285873	483.148335803306	336.922368032198	1040.590939938582	414.864985557470	329.818924417741	944.529945894977	304.092807135400	282.457423379350	989.901064247750	192.334714579791	357.429756950580	1263.458081639347	453.839682273847	577.202604678179	1171.868900004954	364.609853464675	634.208444260991	1212.691720519212	260.156983053950	588.989396648594	1064.910820780274	117.700806360963	552.106993427756	1238.680689256307	133.272896305873	607.388692320757	1136.819841474226	89.965833665669	633.060147775249	1339.635055686133	57.253365015340	644.742316992540	857.367828123946	39.857093667143	408.370103310829	928.342080396109	35.762773633872	325.148718353531	1013.077984307580	96.262763058095	349.040414930726	1140.102417209006	43.446500110141	316.674238419987	1136.048959995447	1105.862552520028	125.861894068424	1359.111589689792	970.331565179486	140.115272550057	1011.834125102612	1080.902916116037	712.635657162315	1074.058289877538	826.655717878566	721.041276211011	
